<svg width="32" height="32" viewBox="0 0 32 32" fill="none" xmlns="http://www.w3.org/2000/svg">
  <rect width="32" height="32" fill="#1E1E1E"/>
  <g transform="translate(1.5, 4.5) scale(0.067)">
    <!-- M left stroke -->
    <path fill="#FFFFFF" d="M222.367706,234.938370 C220.405823,227.060471 218.457321,219.526154 217.143509,211.882767 C207.824615,157.668030 198.636719,103.430763 189.403961,49.201199 C188.322113,42.846828 190.220596,40.511639 196.655640,40.464931 C202.986359,40.418980 209.322144,40.599537 215.647141,40.404003 C219.695663,40.278851 222.059082,41.815235 223.651093,45.620007 C244.699921,95.924660 265.850403,146.186783 286.990326,196.453293 C291.245209,206.570496 295.580414,216.653885 299.843781,226.767548 C302.441193,232.929153 300.406250,236.218506 293.900635,236.229828 C271.742004,236.268341 249.583206,236.264542 227.424683,236.199875 C225.840485,236.195236 224.258087,235.568802 222.367706,234.938370z"/>
    <!-- V right top -->
    <path fill="#FFFFFF" d="M351.540466,90.564682 C344.184326,108.983765 337.104462,127.100716 329.674561,145.072952 C328.767303,147.267471 325.989807,150.068359 324.063751,150.080109 C322.075500,150.092239 319.097382,147.436050 318.218506,145.270859 C308.343750,120.943436 298.795319,96.483604 289.148163,72.063690 C286.156464,64.490822 283.181793,56.910553 280.104370,49.372437 C277.947906,44.090336 279.779602,40.540268 285.332611,40.513504 C311.148468,40.389091 336.965485,40.398487 362.781494,40.508274 C368.126007,40.531002 370.075684,43.918831 368.080292,48.961662 C362.636566,62.719082 357.168671,76.466934 351.540466,90.564682z"/>
    <!-- M left top -->
    <path fill="#FFFFFF" d="M62.020603,46.058628 C62.500854,41.734257 64.992996,40.434837 68.633881,40.439350 C88.630119,40.464138 108.626564,40.407948 128.622589,40.477852 C134.379745,40.497974 136.577225,43.512955 134.611893,48.879398 C127.981255,66.984825 121.198761,85.034698 114.458076,103.099739 C111.029327,112.288803 107.747269,121.540695 103.969162,130.584671 C103.188316,132.453857 100.490883,134.666168 98.699219,134.646774 C96.917801,134.627518 94.254539,132.343918 93.535698,130.459137 C82.878853,102.517097 72.481400,74.476120 62.020603,46.058628z"/>
    <!-- Blue dot -->
    <path fill="#2D8FB5" d="M395.345032,174.561111 C407.104126,182.444931 412.317657,193.349152 410.774384,206.861465 C409.299255,219.777115 402.083893,229.121811 389.901031,233.935974 C377.546295,238.818115 365.819305,236.892471 355.797302,228.239136 C345.111816,219.012924 341.462494,206.930679 345.462006,193.454483 C349.258209,180.663498 358.251251,172.626999 371.551056,169.997421 C379.902405,168.346237 387.757721,169.947525 395.345032,174.561111z"/>
    <!-- V bottom left -->
    <path fill="#FFFFFF" d="M123.752533,196.758636 C131.214005,178.743408 138.537903,161.087540 145.789886,143.402176 C147.005966,140.436508 148.711456,137.222061 152.054092,138.446106 C154.221069,139.239609 156.522797,142.461426 156.910034,144.890732 C161.278336,172.295151 165.296555,199.755447 169.386627,227.204056 C170.480118,234.542465 169.025436,236.241348 161.733749,236.246887 C147.077652,236.258011 132.421524,236.268829 117.765472,236.241104 C110.973801,236.228271 108.973885,233.375137 111.447182,227.177567 C115.453743,217.137909 119.538864,207.129639 123.752533,196.758636z"/>
    <!-- M bottom left -->
    <path fill="#FFFFFF" d="M68.676086,188.245529 C73.940529,201.753937 79.086349,214.892517 84.217888,228.036667 C86.044273,232.714859 84.031532,236.162430 79.103897,236.200500 C63.796017,236.318832 48.486538,236.271866 33.177887,236.223694 C28.491982,236.208954 27.209999,233.328705 27.805830,229.213928 C29.994091,214.102142 32.208584,198.994095 34.438068,183.888321 C36.158367,172.232513 37.915035,160.582077 39.657902,148.929611 C39.903881,147.285034 39.709988,145.356873 40.523106,144.066086 C41.733727,142.144272 43.535488,139.527283 45.316711,139.333893 C47.084282,139.142014 50.078938,141.151962 50.900631,142.945312 C54.215195,150.179367 56.921646,157.693680 59.807381,165.122101 C62.749866,172.696625 65.639214,180.291779 68.676086,188.245529z"/>
  </g>
</svg>
